<?xml version="1.0" encoding="UTF-8"?>
<svg id="Layer_2" data-name="Layer 2" xmlns="http://www.w3.org/2000/svg" viewBox="0 0 42.93 21.94">
  <defs>
    <style>
      .cls-1 {
        fill: #28303d;
        stroke-width: 0px;
      }
    </style>
  </defs>
  <g id="icons">
    <g id="fog">
      <path class="cls-1" d="m34.87,2.34H8.06c-.65,0-1.17-.52-1.17-1.17s.52-1.17,1.17-1.17h26.81c.65,0,1.17.52,1.17,1.17s-.52,1.17-1.17,1.17Z"/>
      <path class="cls-1" d="m41.5,9.13H1.43c-.79,0-1.43-.64-1.43-1.43s.64-1.43,1.43-1.43h40.07c.79,0,1.43.64,1.43,1.43s-.64,1.43-1.43,1.43Z"/>
      <path class="cls-1" d="m39.65,15.6H3.28c-.75,0-1.36-.61-1.36-1.36s.61-1.36,1.36-1.36h36.36c.75,0,1.36.61,1.36,1.36s-.61,1.36-1.36,1.36Z"/>
      <path class="cls-1" d="m34.87,21.94H8.06c-.65,0-1.17-.52-1.17-1.17s.52-1.17,1.17-1.17h26.81c.65,0,1.17.52,1.17,1.17s-.52,1.17-1.17,1.17Z"/>
    </g>
  </g>
</svg>