<?xml version="1.0" encoding="UTF-8"?>
<svg id="Layer_2" data-name="Layer 2" xmlns="http://www.w3.org/2000/svg" viewBox="0 0 43.43 43.43">
  <defs>
    <style>
      .cls-1 {
        fill: #28303d;
        stroke-width: 0px;
      }
    </style>
  </defs>
  <g id="icons">
    <g id="sun">
      <path class="cls-1" d="m32.38,20.15c.86,5.89-3.21,11.36-9.09,12.23-5.89.87-11.36-3.21-12.23-9.09-.87-5.89,3.21-11.36,9.09-12.23,5.89-.86,11.36,3.21,12.23,9.09Z"/>
      <g>
        <g>
          <path class="cls-1" d="m21.63,0c-.93,0-1.68.76-1.67,1.69l.02,4.53c0,.93.76,1.68,1.69,1.68.93,0,1.68-.76,1.67-1.69V1.67C23.32.74,22.56,0,21.63,0Z"/>
          <path class="cls-1" d="m21.8,43.43c.93,0,1.68-.76,1.67-1.69l-.02-4.53c0-.93-.76-1.68-1.69-1.68-.93,0-1.68.76-1.67,1.69v4.53c.02.93.77,1.68,1.7,1.67Z"/>
        </g>
        <g>
          <path class="cls-1" d="m0,21.8c0,.93.76,1.68,1.69,1.68l4.53-.02c.93,0,1.68-.76,1.68-1.69,0-.93-.76-1.68-1.69-1.67H1.67C.74,20.12,0,20.87,0,21.8Z"/>
          <path class="cls-1" d="m43.43,21.63c0-.93-.76-1.68-1.69-1.67l-4.53.02c-.93,0-1.68.76-1.68,1.69,0,.93.76,1.68,1.69,1.67h4.53c.93-.02,1.68-.77,1.67-1.7Z"/>
        </g>
      </g>
      <g>
        <g>
          <path class="cls-1" d="m6.3,6.42c-.66.66-.65,1.72,0,2.38l3.22,3.19c.66.66,1.72.65,2.38,0,.65-.66.65-1.72-.01-2.38l-3.22-3.2c-.66-.65-1.72-.65-2.38.01Z"/>
          <path class="cls-1" d="m37.13,37.01c.65-.66.65-1.72,0-2.38l-3.22-3.19c-.66-.66-1.72-.65-2.38,0-.66.66-.65,1.73,0,2.38l3.22,3.19c.66.66,1.72.65,2.38-.01Z"/>
        </g>
        <g>
          <path class="cls-1" d="m6.42,37.13c.66.65,1.72.65,2.38,0l3.19-3.22c.66-.66.65-1.72,0-2.38-.66-.65-1.73-.65-2.38.01l-3.19,3.22c-.66.66-.65,1.72,0,2.38Z"/>
          <path class="cls-1" d="m37.01,6.3c-.66-.65-1.72-.65-2.38,0l-3.19,3.22c-.66.66-.65,1.72,0,2.38.66.65,1.73.65,2.38-.01l3.2-3.22c.65-.66.65-1.72-.01-2.38Z"/>
        </g>
      </g>
    </g>
  </g>
</svg>