<?xml version="1.0" encoding="UTF-8"?>
<svg id="Layer_2" data-name="Layer 2" xmlns="http://www.w3.org/2000/svg" viewBox="0 0 37.44 41.12">
  <defs>
    <style>
      .cls-1 {
        fill: #28303d;
        stroke-width: 0px;
      }
    </style>
  </defs>
  <g id="icons">
    <g id="raining">
      <path class="cls-1" d="m28.99,23.4c4.66,0,8.45-3.78,8.45-8.45s-3.78-8.45-8.45-8.45c-.66,0-1.29.08-1.9.22-1.18-3.89-4.79-6.73-9.06-6.73-5.23,0-9.47,4.24-9.47,9.47,0,.19.02.38.03.57-.57-.15-1.17-.24-1.78-.24-3.76,0-6.8,3.04-6.8,6.8s3.04,6.8,6.8,6.8h22.19Z"/>
      <g>
        <g>
          <path class="cls-1" d="m7.08,30.55c-.92.73-.67,2.23.22,3,.89.77,2.41.79,3-.23.71-1.24,1.85-5.41,1.85-5.41,0,0-3.96,1.75-5.08,2.64Z"/>
          <path class="cls-1" d="m13.34,30.55c-.92.73-.66,2.23.22,3,.89.77,2.41.79,3-.23.71-1.24,1.85-5.41,1.85-5.41,0,0-3.95,1.75-5.08,2.64Z"/>
          <path class="cls-1" d="m19.6,30.55c-.92.73-.66,2.23.22,3,.89.77,2.41.79,3-.23.71-1.24,1.86-5.41,1.86-5.41,0,0-3.96,1.75-5.08,2.64Z"/>
          <path class="cls-1" d="m25.86,30.55c-.92.73-.66,2.23.23,3,.89.77,2.41.79,3-.23.71-1.24,1.85-5.41,1.85-5.41,0,0-3.95,1.75-5.08,2.64Z"/>
        </g>
        <g>
          <path class="cls-1" d="m13.94,37.93c-.82.66-.6,2,.2,2.69.8.69,2.16.71,2.69-.2.64-1.11,1.66-4.85,1.66-4.85,0,0-3.54,1.57-4.55,2.36Z"/>
          <path class="cls-1" d="m19.55,37.93c-.82.66-.6,2,.2,2.69.8.69,2.16.71,2.69-.2.64-1.11,1.66-4.85,1.66-4.85,0,0-3.54,1.57-4.55,2.36Z"/>
        </g>
      </g>
    </g>
  </g>
</svg>