<?xml version="1.0" encoding="UTF-8"?>
<svg id="Layer_2" data-name="Layer 2" xmlns="http://www.w3.org/2000/svg" viewBox="0 0 37.44 39.24">
  <defs>
    <style>
      .cls-1 {
        fill: #28303d;
        stroke-width: 0px;
      }
    </style>
  </defs>
  <g id="icons">
    <g id="raini">
      <path class="cls-1" d="m28.99,23.4c4.66,0,8.45-3.78,8.45-8.45s-3.78-8.45-8.45-8.45c-.66,0-1.29.08-1.91.22-1.17-3.89-4.79-6.73-9.06-6.73-5.23,0-9.47,4.24-9.47,9.47,0,.19.02.38.03.57-.57-.15-1.17-.24-1.78-.24-3.76,0-6.8,3.04-6.8,6.8s3.04,6.8,6.8,6.8h22.19Z"/>
      <path class="cls-1" d="m13.32,33.36c-1.52,1.2-1.1,3.69.37,4.95,1.47,1.26,3.99,1.31,4.95-.37,1.18-2.05,3.06-8.94,3.06-8.94,0,0-6.53,2.89-8.38,4.36Z"/>
    </g>
  </g>
</svg>