<?xml version="1.0" encoding="UTF-8"?>
<svg id="Layer_2" data-name="Layer 2" xmlns="http://www.w3.org/2000/svg" viewBox="0 0 37.44 39.51">
  <defs>
    <style>
      .cls-1 {
        fill: #28303d;
        stroke-width: 0px;
      }
    </style>
  </defs>
  <g id="icons">
    <g id="snowy">
      <path class="cls-1" d="m28.99,23.4c4.66,0,8.45-3.78,8.45-8.45s-3.78-8.45-8.45-8.45c-.66,0-1.29.08-1.91.22-1.17-3.89-4.79-6.73-9.06-6.73-5.23,0-9.47,4.24-9.47,9.47,0,.19.02.38.03.57-.57-.15-1.17-.24-1.78-.24-3.76,0-6.8,3.04-6.8,6.8s3.04,6.8,6.8,6.8h22.19Z"/>
      <path class="cls-1" d="m23.76,32.42h-2.57l1.82-1.82c.4-.4.4-1.05,0-1.45-.4-.4-1.05-.4-1.45,0l-1.82,1.82v-2.57c0-.57-.46-1.02-1.02-1.02s-1.02.46-1.02,1.02v2.57l-1.82-1.82c-.4-.4-1.05-.4-1.45,0-.4.4-.4,1.05,0,1.45l1.82,1.82h-2.57c-.57,0-1.02.46-1.02,1.02s.46,1.02,1.02,1.02h2.57l-1.82,1.82c-.4.4-.4,1.05,0,1.45.4.4,1.05.4,1.45,0l1.82-1.82v2.58c0,.57.46,1.02,1.02,1.02s1.02-.46,1.02-1.02v-2.57l1.82,1.82c.4.4,1.05.4,1.45,0,.4-.4.4-1.05,0-1.45l-1.82-1.82h2.58c.56,0,1.02-.46,1.02-1.02s-.46-1.02-1.02-1.02Z"/>
    </g>
  </g>
</svg>