<?xml version="1.0" encoding="UTF-8"?>
<svg id="Layer_2" data-name="Layer 2" xmlns="http://www.w3.org/2000/svg" viewBox="0 0 25.1 45.36">
  <defs>
    <style>
      .cls-1 {
        fill: #28303d;
        stroke-width: 0px;
      }
    </style>
  </defs>
  <g id="icons">
    <g id="temperature">
      <path class="cls-1" d="m12.55,16.92c-1.42,0-2.57,1.15-2.57,2.58v9.16l-.38.29c-1.25.94-1.97,2.37-1.97,3.93,0,2.71,2.21,4.92,4.92,4.92s4.92-2.21,4.92-4.92c0-1.56-.72-2.99-1.97-3.93l-.38-.29v-9.16c0-1.42-1.15-2.58-2.57-2.58Z"/>
      <path class="cls-1" d="m12.55,45.36c-6.92,0-12.55-5.63-12.55-12.55,0-3.67,1.56-7.07,4.31-9.46v-15.11C4.31,3.7,8.01,0,12.55,0s8.24,3.7,8.24,8.24v15.11c2.75,2.39,4.31,5.79,4.31,9.46,0,6.92-5.63,12.55-12.55,12.55Zm0-41.85c-2.61,0-4.73,2.12-4.73,4.73v16.83l-.7.52c-2.3,1.73-3.61,4.36-3.61,7.22,0,4.99,4.06,9.04,9.04,9.04s9.04-4.06,9.04-9.04c0-2.86-1.32-5.49-3.62-7.22l-.7-.52V8.24c0-2.61-2.12-4.73-4.73-4.73Z"/>
      <g>
        <rect class="cls-1" x="20.15" y="9.41" width="1.43" height="2.49"/>
        <rect class="cls-1" x="20.15" y="14.43" width="1.43" height="2.49"/>
        <rect class="cls-1" x="20.15" y="19.46" width="1.43" height="2.49"/>
      </g>
    </g>
  </g>
</svg>