<?xml version="1.0" encoding="UTF-8"?>
<svg id="Layer_2" data-name="Layer 2" xmlns="http://www.w3.org/2000/svg" viewBox="0 0 35.9 37.52">
  <defs>
    <style>
      .cls-1 {
        fill: #28303d;
        stroke-width: 0px;
      }
    </style>
  </defs>
  <g id="icons">
    <g id="wind">
      <path class="cls-1" d="m1.29,37.52c-.71,0-1.29-.58-1.29-1.29V1.29C0,.58.58,0,1.29,0s1.29.58,1.29,1.29v34.95c0,.71-.58,1.29-1.29,1.29Z"/>
      <g>
        <polygon class="cls-1" points="18.32 17.29 23.3 16.71 23.3 3.24 18.32 2.66 18.32 17.29"/>
        <path class="cls-1" d="m33.57,4.43l-3.26-.38v11.85l3.26-.38c1.28-.15,2.32-1.32,2.32-2.61v-5.87c0-1.29-1.05-2.46-2.32-2.61Z"/>
        <path class="cls-1" d="m11.3,1.84l-3.31-.38c-1.28-.15-2.32.78-2.32,2.07v12.89c0,1.29,1.05,2.22,2.32,2.07l3.31-.38V1.84Z"/>
      </g>
    </g>
  </g>
</svg>